<svg width="341" height="62" viewBox="0 0 341 62" fill="none" xmlns="http://www.w3.org/2000/svg">
<path d="M30.4752 60.9503C27.3284 60.9503 24.4896 60.8212 21.9585 60.5631C19.4275 60.3566 17.2385 60.0726 15.3915 59.7112C11.6975 58.9367 9.85056 57.8525 9.85056 56.4584L11.2871 40.7368C3.76237 34.7476 0 29.3522 0 24.5505C0 21.2978 1.09451 18.7162 3.28352 16.8059C5.54094 14.8955 8.61924 13.9404 12.5184 13.9404C17.0333 13.9404 20.9324 15.1795 24.2159 17.6578L23.8055 12.5463C23.6003 10.636 25.242 9.47428 28.7308 9.06123V4.72423H24.5238V2.86552H28.7308V0H32.2195V2.86552H36.4265V4.72423H32.2195V9.06123C35.7083 9.47428 37.35 10.636 37.1448 12.5463L36.7344 17.6578C40.0179 15.1795 43.9171 13.9404 48.4319 13.9404C52.3311 13.9404 55.3752 14.8955 57.5642 16.8059C59.8216 18.7162 60.9503 21.2978 60.9503 24.5505C60.9503 29.3522 57.188 34.7476 49.6632 40.7368L51.0998 56.4584C51.0998 57.8525 49.2528 58.9367 45.5588 59.7112C43.7118 60.0726 41.5228 60.3566 38.9918 60.5631C36.5291 60.8212 33.6903 60.9503 30.4752 60.9503ZM30.4752 25.6348C31.5013 23.5695 32.459 21.9948 33.3482 20.9105V13.5531C33.3482 11.8493 32.3905 10.9974 30.4752 10.9974C28.5598 10.9974 27.6021 11.8493 27.6021 13.5531V20.9105C28.4914 21.9948 29.4491 23.5695 30.4752 25.6348ZM30.4752 23.6212C30.3383 23.1565 30.1331 22.6143 29.8595 21.9948C29.6543 21.3752 29.4149 20.8073 29.1412 20.291V14.7923C29.1412 14.3792 29.2096 13.992 29.3464 13.6306C29.4833 13.2175 29.8595 13.011 30.4752 13.011C31.0908 13.011 31.4671 13.2175 31.6039 13.6306C31.7407 13.992 31.8091 14.3792 31.8091 14.7923V20.291C31.5355 20.8073 31.2618 21.3752 30.9882 21.9948C30.783 22.6143 30.612 23.1565 30.4752 23.6212ZM14.7758 39.1879C19.9063 38.4134 24.4212 38.0262 28.3203 38.0262V35.5479C28.3203 33.2761 27.9099 31.056 27.089 28.8875C26.3366 26.719 25.242 24.757 23.8055 23.0016C22.369 21.2461 20.693 19.8521 18.7776 18.8195C16.9306 17.7352 14.9126 17.1931 12.7236 17.1931C10.1926 17.1931 8.2088 17.8901 6.77226 19.2842C5.33572 20.6266 4.61745 22.5111 4.61745 24.9377C4.61745 26.8997 5.57514 29.1973 7.49053 31.8305C9.40591 34.4636 11.8343 36.9161 14.7758 39.1879ZM46.1745 39.1879C49.116 36.9161 51.5444 34.4636 53.4598 31.8305C55.3752 29.1973 56.3329 26.8997 56.3329 24.9377C56.3329 22.5111 55.6146 20.6266 54.1781 19.2842C52.8099 17.8901 50.8261 17.1931 48.2267 17.1931C46.0377 17.1931 43.9855 17.7352 42.0701 18.8195C40.2231 19.8521 38.5813 21.2461 37.1448 23.0016C35.7083 24.757 34.5796 26.719 33.7587 28.8875C33.0062 31.056 32.63 33.2761 32.63 35.5479V38.0262C36.5291 38.0262 41.044 38.4134 46.1745 39.1879ZM15.1863 36.7096C10.261 32.3726 7.79836 28.681 7.79836 25.6348C7.79836 23.8277 8.2772 22.382 9.2349 21.2978C10.261 20.2135 11.7659 19.6714 13.7497 19.6714C16.0072 19.6714 18.0251 20.4717 19.8037 22.0722C21.6507 23.6212 23.0872 25.6089 24.1133 28.0356C25.2078 30.4106 25.7551 32.8889 25.7551 35.4705V35.8577C24.5238 35.8577 23.0188 35.9351 21.2403 36.09C19.5301 36.2449 17.5121 36.4514 15.1863 36.7096ZM45.764 36.7096C43.4382 36.4514 41.386 36.2449 39.6074 36.09C37.8973 35.9351 36.4265 35.8577 35.1952 35.8577V35.4705C35.1952 32.8889 35.7083 30.4106 36.7344 28.0356C37.8289 25.6089 39.2996 23.6212 41.1466 22.0722C42.9936 20.4717 45.0116 19.6714 47.2006 19.6714C49.1844 19.6714 50.6551 20.2135 51.6128 21.2978C52.6389 22.382 53.152 23.8277 53.152 25.6348C53.152 28.681 50.6893 32.3726 45.764 36.7096ZM15.3915 46.7776C16.0756 46.5711 17.2043 46.3646 18.7776 46.1581C20.4194 45.9515 22.2664 45.7966 24.3186 45.6934C26.4392 45.5385 28.4914 45.461 30.4752 45.461C32.5274 45.461 34.5796 45.5385 36.6318 45.6934C38.684 45.7966 40.4967 45.9515 42.0701 46.1581C43.7118 46.3646 44.8747 46.5711 45.5588 46.7776L45.3536 44.6091C43.1646 44.1961 40.8388 43.8863 38.3761 43.6798C35.9135 43.4216 33.2798 43.2925 30.4752 43.2925C27.7389 43.2925 25.1052 43.4216 22.5742 43.6798C20.1116 43.8863 17.7857 44.1961 15.5967 44.6091L15.3915 46.7776ZM14.6732 52.741C18.2988 51.8116 23.5661 51.347 30.4752 51.347C37.4526 51.347 42.7199 51.8116 46.2771 52.741L46.0719 50.7274C44.1565 50.3143 41.7622 49.9529 38.8892 49.6431C36.0161 49.3333 33.2114 49.1785 30.4752 49.1785C27.7389 49.1785 24.9342 49.3333 22.0611 49.6431C19.1881 49.9529 16.7938 50.3143 14.8784 50.7274L14.6732 52.741Z" fill="#20A4F3"/>
<path d="M324.246 24.4081V33.4961H338.902V41.9441H324.246V51.8001H340.822V60.5681H313.302V15.6401H340.822V24.4081H324.246Z" fill="#111111"/>
<path d="M285.75 15.6401C290.486 15.6401 294.625 16.5788 298.166 18.4561C301.708 20.3335 304.438 22.9788 306.358 26.3921C308.321 29.7628 309.302 33.6668 309.302 38.1041C309.302 42.4988 308.321 46.4028 306.358 49.8161C304.438 53.2295 301.686 55.8748 298.102 57.7521C294.561 59.6295 290.444 60.5681 285.75 60.5681H268.918V15.6401H285.75ZM285.046 51.0961C289.185 51.0961 292.406 49.9655 294.71 47.7041C297.014 45.4428 298.166 42.2428 298.166 38.1041C298.166 33.9655 297.014 30.7441 294.71 28.4401C292.406 26.1361 289.185 24.9841 285.046 24.9841H279.862V51.0961H285.046Z" fill="#111111"/>
<path d="M264.918 15.6401V60.5681H253.974V15.6401H264.918Z" fill="#111111"/>
<path d="M233.59 61.016C230.305 61.016 227.361 60.4827 224.758 59.416C222.156 58.3493 220.065 56.7707 218.486 54.68C216.95 52.5893 216.14 50.072 216.054 47.128H227.702C227.873 48.792 228.449 50.072 229.43 50.968C230.412 51.8213 231.692 52.248 233.27 52.248C234.892 52.248 236.172 51.8853 237.11 51.16C238.049 50.392 238.518 49.3467 238.518 48.024C238.518 46.9147 238.134 45.9973 237.366 45.272C236.641 44.5467 235.724 43.9493 234.614 43.48C233.548 43.0107 232.012 42.4773 230.006 41.88C227.105 40.984 224.737 40.088 222.902 39.192C221.068 38.296 219.489 36.9733 218.166 35.224C216.844 33.4747 216.182 31.192 216.182 28.376C216.182 24.1947 217.697 20.9307 220.726 18.584C223.756 16.1947 227.702 15 232.566 15C237.516 15 241.505 16.1947 244.534 18.584C247.564 20.9307 249.185 24.216 249.398 28.44H237.558C237.473 26.9893 236.94 25.8587 235.958 25.048C234.977 24.1947 233.718 23.768 232.182 23.768C230.86 23.768 229.793 24.1307 228.982 24.856C228.172 25.5387 227.766 26.5413 227.766 27.864C227.766 29.3147 228.449 30.4453 229.814 31.256C231.18 32.0667 233.313 32.9413 236.214 33.88C239.116 34.8613 241.462 35.8 243.254 36.696C245.089 37.592 246.668 38.8933 247.99 40.6C249.313 42.3067 249.974 44.504 249.974 47.192C249.974 49.752 249.313 52.0773 247.99 54.168C246.71 56.2587 244.833 57.9227 242.358 59.16C239.884 60.3973 236.961 61.016 233.59 61.016Z" fill="#111111"/>
<path d="M199.19 29.8479C198.38 28.3546 197.206 27.2239 195.67 26.4559C194.177 25.6453 192.406 25.2399 190.358 25.2399C186.817 25.2399 183.98 26.4133 181.846 28.7599C179.713 31.0639 178.646 34.1573 178.646 38.0399C178.646 42.1786 179.756 45.4213 181.974 47.7679C184.236 50.0719 187.329 51.2239 191.254 51.2239C193.942 51.2239 196.204 50.5413 198.038 49.1759C199.916 47.8106 201.281 45.8479 202.134 43.2879H188.246V35.2239H212.054V45.3999C211.244 48.1306 209.857 50.6693 207.894 53.0159C205.974 55.3626 203.521 57.2613 200.534 58.7119C197.548 60.1626 194.177 60.8879 190.422 60.8879C185.985 60.8879 182.017 59.9279 178.518 58.0079C175.062 56.0453 172.353 53.3359 170.39 49.8799C168.47 46.4239 167.51 42.4773 167.51 38.0399C167.51 33.6026 168.47 29.6559 170.39 26.1999C172.353 22.7013 175.062 19.9919 178.518 18.0719C181.974 16.1093 185.921 15.1279 190.358 15.1279C195.734 15.1279 200.257 16.4293 203.926 19.0319C207.638 21.6346 210.092 25.2399 211.286 29.8479H199.19Z" fill="#111111"/>
<path d="M163.51 60.5681H152.566L134.262 32.8561V60.5681H123.318V15.6401H134.262L152.566 43.4801V15.6401H163.51V60.5681Z" fill="#111111"/>
<path d="M119.318 15.6401V60.5681H108.374V15.6401H119.318Z" fill="#111111"/>
<path d="M90.9983 60.5681L75.8943 40.7281V60.5681H64.9503V15.6401H75.8943V35.3521L90.8703 15.6401H103.734L86.3263 37.6561L104.374 60.5681H90.9983Z" fill="#111111"/>
</svg>
